<?xml version="1.0" encoding="utf-8"?>
<!-- Generator: Adobe Illustrator 18.1.0, SVG Export Plug-In . SVG Version: 6.00 Build 0)  -->
<!DOCTYPE svg PUBLIC "-//W3C//DTD SVG 1.1//EN" "http://www.w3.org/Graphics/SVG/1.1/DTD/svg11.dtd">
<svg version="1.1" id="Calque_1" xmlns="http://www.w3.org/2000/svg" xmlns:xlink="http://www.w3.org/1999/xlink" x="0px" y="0px"
	 viewBox="0 0 105.3 36.3" enable-background="new 0 0 105.3 36.3" xml:space="preserve">
<g>
	<g>
		<defs>
			<rect id="SVGID_1_" x="3.2" y="0" width="104.1" height="38.3"/>
		</defs>
		<clipPath id="SVGID_2_">
			<use xlink:href="#SVGID_1_"  overflow="visible"/>
		</clipPath>
		<g clip-path="url(#SVGID_2_)">
			<defs>
				<rect id="SVGID_3_" x="3.2" y="0" width="104.1" height="38.3"/>
			</defs>
			<clipPath id="SVGID_4_">
				<use xlink:href="#SVGID_3_"  overflow="visible"/>
			</clipPath>
			<g clip-path="url(#SVGID_4_)">
				<text transform="matrix(0.9861 0 0 1 21.6596 23.0059)" fill="#EF713A" font-family="'Avenir-Medium'" font-size="23.9142">#</text>
			</g>
			<g clip-path="url(#SVGID_4_)">
				<text transform="matrix(0.9861 0 0 1 34.0634 23.0059)" fill="#EF713A" font-family="'Avenir-Medium'" font-size="23.9142">T</text>
			</g>
			<g clip-path="url(#SVGID_4_)">
				<text transform="matrix(0.9861 0 0 1 47.953 23.0059)"><tspan x="0" y="0" fill="#EF713A" font-family="'Avenir-Medium'" font-size="23.9142">I</tspan><tspan x="7" y="0" fill="#EF713A" font-family="'Avenir-Medium'" font-size="23.9142">M</tspan></text>
			</g>
		</g>
		<polygon clip-path="url(#SVGID_2_)" fill="#F3F2ED" points="3.2,18.2 3.2,21.2 20.8,32.8 20.8,29.5 5.9,19.7 20.8,9.9 20.8,6.6 		
			"/>
		<polygon clip-path="url(#SVGID_2_)" fill="#F3F2ED" points="84.7,9.9 99.5,19.7 84.7,29.5 84.7,32.8 102.3,21.2 102.3,18.2 
			84.7,6.6 		"/>
		<line clip-path="url(#SVGID_2_)" x1="75.4" y1="34.5" x2="83.3" y2="4.9"/>
		
			<line clip-path="url(#SVGID_2_)" fill="none" stroke="#F3F2ED" stroke-width="1.565" stroke-miterlimit="10" x1="75.4" y1="34.5" x2="83.3" y2="4.9"/>
		<g clip-path="url(#SVGID_2_)">
			<text transform="matrix(0.9861 0 0 1 22.5297 32.5054)"><tspan x="0" y="0" fill="#F3F2ED" font-family="'Avenir-Roman'" font-size="9.8956" letter-spacing="2">MA</tspan><tspan x="20.1" y="0" fill="#F3F2ED" font-family="'Avenir-Roman'" font-size="9.8956" letter-spacing="2">TA</tspan><tspan x="36.8" y="0" fill="#F3F2ED" font-family="'Avenir-Roman'" font-size="9.8956">N</tspan></text>
		</g>
		<g clip-path="url(#SVGID_2_)">
			<text transform="matrix(0.9861 0 0 1 68.5106 32.5054)" fill="#F3F2ED" font-family="'Avenir-Roman'" font-size="9.8956">E</text>
		</g>
	</g>
</g>
</svg>
